<svg xmlns="http://www.w3.org/2000/svg" viewBox="0 0 126 157.08"><title>Recurso 3</title><g id="Capa_2" data-name="Capa 2"><g id="Capa_2-2" data-name="Capa 2"><path d="M12.69,153h0a15.46,15.46,0,0,0,10.4,4.1h79a15.61,15.61,0,0,0,11.49-5.19l.85-.92a18.55,18.55,0,0,0,4.76-12.53V54.24c0-9.78-7.28-17.72-16.25-17.72H23.09c-9,0-16.25,7.94-16.25,17.72v85.12A18.4,18.4,0,0,0,12.69,153Z"/><path d="M45.36,5.49h0A5.28,5.28,0,0,1,50.4,0H75.6a5.28,5.28,0,0,1,5,5.49h0a5.29,5.29,0,0,0,5,5.5H121a5.28,5.28,0,0,1,5,5.49v7.33a5.28,5.28,0,0,1-5,5.49H5a5.28,5.28,0,0,1-5-5.49V16.48A5.28,5.28,0,0,1,5,11H40.32A5.29,5.29,0,0,0,45.36,5.49Z"/></g></g></svg>